<svg xmlns="http://www.w3.org/2000/svg" width="74.876" height="21.863" viewBox="0 0 74.876 21.863"><g id="Logo" transform="translate(1.497 -4.977)"><path id="Muir" d="M6.754.264A7.236,7.236,0,0,1,3.762-.319,4.809,4.809,0,0,1,1.716-1.991a4.69,4.69,0,0,1-.77-2.651h2.97A2.627,2.627,0,0,0,4.7-2.827a2.75,2.75,0,0,0,2.035.737,2.734,2.734,0,0,0,1.782-.539,1.765,1.765,0,0,0,.66-1.441,1.887,1.887,0,0,0-.583-1.474A4.393,4.393,0,0,0,7.04-6.4l-2.068-.7A6.809,6.809,0,0,1,2.255-8.69a3.548,3.548,0,0,1-.935-2.574,3.926,3.926,0,0,1,.649-2.343,4.418,4.418,0,0,1,1.837-1.518,6.332,6.332,0,0,1,2.684-.539,6.352,6.352,0,0,1,2.717.55,4.452,4.452,0,0,1,1.848,1.54,4.354,4.354,0,0,1,.715,2.354H8.756a2.1,2.1,0,0,0-.627-1.441,2.229,2.229,0,0,0-1.683-.627,2.4,2.4,0,0,0-1.551.451,1.617,1.617,0,0,0-.627,1.375,1.588,1.588,0,0,0,.484,1.221,3.887,3.887,0,0,0,1.32.759q.836.308,1.914.66a13.019,13.019,0,0,1,2.09.924,4.283,4.283,0,0,1,1.518,1.4,3.989,3.989,0,0,1,.572,2.233,4.306,4.306,0,0,1-.616,2.244A4.43,4.43,0,0,1,9.724-.363,6.4,6.4,0,0,1,6.754.264Zm9.328-12.87a1.78,1.78,0,0,1-1.265-.462,1.527,1.527,0,0,1-.495-1.166,1.493,1.493,0,0,1,.495-1.155,1.806,1.806,0,0,1,1.265-.451,1.806,1.806,0,0,1,1.265.451,1.493,1.493,0,0,1,.495,1.155,1.527,1.527,0,0,1-.495,1.166A1.78,1.78,0,0,1,16.082-12.606ZM14.674,0V-10.912H17.49V0ZM21.8,4.84l2.53-5.566h-.66L19.426-10.912h3.058l3.058,7.678,3.19-7.678h2.992L24.794,4.84ZM36.476.264a5.162,5.162,0,0,1-2.31-.451,3.121,3.121,0,0,1-1.342-1.2,3.2,3.2,0,0,1-.44-1.65A3,3,0,0,1,33.572-5.5a5.649,5.649,0,0,1,3.564-.946h2.772V-6.71a2.02,2.02,0,0,0-.638-1.65,2.4,2.4,0,0,0-1.584-.528,2.721,2.721,0,0,0-1.5.407,1.752,1.752,0,0,0-.792,1.2h-2.75a3.838,3.838,0,0,1,.8-2.068A4.5,4.5,0,0,1,35.244-10.7a6.178,6.178,0,0,1,2.464-.473,5.413,5.413,0,0,1,3.674,1.166,4.137,4.137,0,0,1,1.342,3.3V0h-2.4l-.264-1.76A4.067,4.067,0,0,1,38.709-.308,3.989,3.989,0,0,1,36.476.264Zm.638-2.2A2.331,2.331,0,0,0,39-2.728a3.846,3.846,0,0,0,.847-1.958h-2.4a2.5,2.5,0,0,0-1.606.407,1.26,1.26,0,0,0-.484,1,1.153,1.153,0,0,0,.484.99A2.121,2.121,0,0,0,37.114-1.936Zm9.5,2.09A1.734,1.734,0,0,1,45.353-.33,1.572,1.572,0,0,1,44.858-1.5a1.6,1.6,0,0,1,.495-1.188,1.734,1.734,0,0,1,1.265-.484,1.734,1.734,0,0,1,1.265.484,1.6,1.6,0,0,1,.5,1.188,1.572,1.572,0,0,1-.5,1.166A1.734,1.734,0,0,1,46.618.154Z" transform="translate(25 22)" fill="#fff"></path><path id="Path_598" data-name="Path 598" d="M14.656,3.635S12.686-.146,6.709,0,.043,3.363.007,4.116-.1,7.077,4.059,7.077c2.385-.036,2.218-2.318,5.157-3.442A7.627,7.627,0,0,1,14.656,3.635Z" transform="translate(14.484 21.001) rotate(180)" fill="#fff" stroke="#fff" stroke-linecap="round" stroke-linejoin="round" stroke-width="1"></path><path id="Path_599" data-name="Path 599" d="M14.652,3.635S12.682-.146,6.705,0,.04,3.364,0,4.116-.1,7.077,4.055,7.077C6.44,7.041,6.273,4.759,9.212,3.635A7.627,7.627,0,0,1,14.652,3.635Z" transform="translate(-0.996 5.478)" fill="#ff2c00" stroke="#ff2c00" stroke-linecap="round" stroke-linejoin="round" stroke-width="1"></path></g></svg>